:SAMPLES-PER-SECOND 30
:FULLY-SPECIFIED
:DEGREES
254
root  18.176 39.017 7.87938 48.708 82.7568 52.5744
RightUpLeg  16.9992 -15.8071 -9.00628
RightLeg  28.5651 -0.631719 -0.606969
RightFoot  -9.99248 -0.192485 9.69778
RightToes  0.00048216 0.542163 -0.142577
Spine  14.7152 3.04327 4.80824
Spine1  11.5703 8.5574 -15.4424
HEad  22.7768 53.8042 -9.20299
LeftShoulder1  6.95286 -10.4354 -43.3778
LeftArm  -20.0339 33.2152 -27.3369
LeftForeArm  15.393 -21.5324 -3.80731
LeftHand  -0.25398 0.0180481 5.50724
RightShoulder  5.16097 8.92872 35.5412
RightArm  -0.471116 -21.4583 32.3874
RightForeArm  -4.57421 33.1123 7.60083
RightHand  -0.331792 -2.71675 -13.786
LeftUpLeg  -13.017 4.19756 -5.90483
LeftLeg  4.36707 21.844 -6.6181
LeftFoot  9.31779 -1.8238 9.65218
LeftToes  1.06244e-005 4.65856e-005 -8.18505e-006
255
root  16.9789 38.7483 7.49862 45.2573 80.9163 47.6498
RightUpLeg  17.0688 -15.9653 -10.0484
RightLeg  23.4532 0.855069 0.197136
RightFoot  -17.6061 0.294541 7.72342
RightToes  0.00048216 0.542163 -0.142577
Spine  12.4801 3.73513 5.28695
Spine1  11.8231 9.461 -16.1186
HEad  22.1931 53.4102 -9.91336
LeftShoulder1  7.01286 -10.4747 -43.6427
LeftArm  -19.7675 33.0321 -27.7916
LeftForeArm  16.1038 -21.4788 -3.7695
LeftHand  -0.25398 0.0180481 5.50724
RightShoulder  5.19443 9.06424 35.3631
RightArm  -0.515437 -20.3093 32.4658
RightForeArm  -2.3163 33.7573 7.65361
RightHand  -0.162641 -4.06917 -12.4888
LeftUpLeg  -15.1489 1.44209 -6.24987
LeftLeg  0.476658 26.2052 -8.56519
LeftFoot  12.306 -2.36322 10.8797
LeftToes  1.06244e-005 4.65856e-005 -8.18505e-006
256
root  15.6543 38.5424 7.08806 36.1073 80.8134 38.3853
RightUpLeg  17.0084 -16.9695 -9.46961
RightLeg  20.0807 1.02155 0.719429
RightFoot  -22.6205 0.284397 4.37271
RightToes  0.00048216 0.542163 -0.142577
Spine  12.5302 3.61489 8.22074
Spine1  11.8267 9.82768 -17.1134
HEad  21.0343 52.7001 -11.3757
LeftShoulder1  7.20137 -10.6625 -44.2532
LeftArm  -19.0764 32.1461 -28.0618
LeftForeArm  17.3891 -21.3744 -3.70488
LeftHand  -0.25398 0.0180481 5.50724
RightShoulder  5.25883 9.23687 35.3097
RightArm  -0.729015 -18.6326 32.2123
RightForeArm  -0.642921 34.3401 7.72118
RightHand  -0.0839447 -4.81258 -11.8629
LeftUpLeg  -15.9728 0.926749 -4.9518
LeftLeg  -2.92896 27.7095 -10.1033
LeftFoot  15.1855 -2.47603 10.1104
LeftToes  1.06244e-005 4.65856e-005 -8.18505e-006
257
root  14.3067 38.436 6.66816 21.9753 82.0566 24.7683
RightUpLeg  16.5104 -16.8313 -6.95703
RightLeg  18.4633 -1.24014 1.48372
RightFoot  -24.4768 -0.0140124 1.28617
RightToes  0.00048216 0.542163 -0.142577
Spine  13.4352 2.87073 12.4458
Spine1  11.8553 9.5675 -17.6319
HEad  20.2906 51.1794 -12.6936
LeftShoulder1  7.39363 -10.8781 -44.7796
LeftArm  -18.0313 30.8957 -28.5314
LeftForeArm  19.5442 -21.3608 -3.62468
LeftHand  -0.25398 0.0180481 5.50724
RightShoulder  5.28429 9.3164 35.2532
RightArm  -1.04155 -16.818 31.6921
RightForeArm  0.328907 34.5721 7.73078
RightHand  -0.0771892 -4.88719 -11.871
LeftUpLeg  -16.2685 1.82808 -2.55042
LeftLeg  -4.85962 25.0639 -10.4564
LeftFoot  17.5508 -1.05128 3.68957
LeftToes  1.06244e-005 4.65856e-005 -8.18505e-006
258
root  13.0539 38.4147 6.28682 7.73386 83.1398 10.6974
RightUpLeg  14.9818 -16.4104 -4.43003
RightLeg  18.0743 -3.78026 2.12377
RightFoot  -25.1604 -0.240896 -0.586659
RightToes  0.00048216 0.542163 -0.142577
Spine  13.6137 2.328 15.509
Spine1  11.9328 9.0076 -16.9973
HEad  20.2989 48.9435 -13.2902
LeftShoulder1  7.48162 -11.0262 -44.8546
LeftArm  -17.1647 29.8801 -29.3468
LeftForeArm  22.1274 -21.7515 -3.57922
LeftHand  -0.25398 0.0180481 5.50724
RightShoulder  5.27669 9.30217 35.2401
RightArm  -1.71614 -15.4029 31.1074
RightForeArm  0.901914 34.4312 7.65858
RightHand  -0.0956643 -4.7051 -12.0356
LeftUpLeg  -16.9746 2.46683 -0.178031
LeftLeg  -5.28805 19.5134 -9.6713
LeftFoot  18.8459 1.83095 -7.2371
LeftToes  1.06244e-005 4.65856e-005 -8.18505e-006
259
root  11.9411 38.5264 5.98358 0.864059 83.6305 3.83551
RightUpLeg  12.9179 -15.8244 -3.06267
RightLeg  18.2726 -5.80282 2.33178
RightFoot  -25.1387 -0.353594 -1.52148
RightToes  0.00048216 0.542163 -0.142577
Spine  13.4099 2.23004 16.3286
Spine1  11.9988 8.43728 -15.4726
HEad  20.6019 46.6906 -13.3519
LeftShoulder1  7.50403 -11.1196 -44.6956
LeftArm  -16.7569 29.2981 -29.9319
LeftForeArm  23.8993 -22.5056 -3.60941
LeftHand  -0.25398 0.0180481 5.50724
RightShoulder  5.31516 9.3189 35.4813
RightArm  -2.89691 -14.5448 30.7334
RightForeArm  1.12652 33.8394 7.48236
RightHand  -0.128387 -4.38857 -12.2194
LeftUpLeg  -17.3289 2.48339 1.1537
LeftLeg  -5.13463 13.7495 -8.51124
LeftFoot  18.724 3.95631 -15.1271
LeftToes  1.06244e-005 4.65856e-005 -8.18505e-006
260
root  10.9268 38.8422 5.75203 4.29318 84.1743 7.56306
RightUpLeg  11.5008 -14.8539 -2.80546
RightLeg  17.7166 -7.8146 2.21063
RightFoot  -23.6033 -0.381843 -2.06959
RightToes  0.00048216 0.542163 -0.142577
Spine  13.5286 2.11234 15.2436
Spine1  12.2241 7.82746 -13.8053
HEad  20.9338 44.8813 -13.1093
LeftShoulder1  7.53518 -11.1915 -44.6605
LeftArm  -16.5706 28.8473 -29.7049
LeftForeArm  24.0626 -23.0568 -3.68969
LeftHand  -0.25398 0.0180481 5.50724
RightShoulder  5.39545 9.38236 35.8919
RightArm  -4.21759 -14.1172 30.9716
RightForeArm  0.715594 32.5747 7.16492
RightHand  -0.196166 -3.78197 -12.72
LeftUpLeg  -16.799 2.0197 1.13549
LeftLeg  -3.85635 10.8066 -7.35728
LeftFoot  17.0926 3.68771 -14.8616
LeftToes  1.06244e-005 4.65856e-005 -8.18505e-006
261
root  10.0426 39.2541 5.54692 16.483 84.8911 19.9438
RightUpLeg  10.6499 -13.3647 -3.16897
RightLeg  16.1544 -10.2045 2.15725
RightFoot  -21.2444 -0.327454 -2.10827
RightToes  0.00048216 0.542163 -0.142577
Spine  13.4149 1.87686 13.3387
Spine1  12.488 7.15237 -12.4954
HEad  21.4938 43.345 -12.4011
LeftShoulder1  7.54469 -11.2245 -44.6148
LeftArm  -16.4688 28.3253 -28.906
LeftForeArm  23.1617 -23.0091 -3.72821
LeftHand  -0.25398 0.0180481 5.50724
RightShoulder  5.41498 9.37269 36.0705
RightArm  -5.07676 -14.2776 32.052
RightForeArm  -0.292086 30.8176 6.76258
RightHand  -0.27822 -3.12331 -13.4453
LeftUpLeg  -16.1739 2.25111 -0.0513769
LeftLeg  -0.51726 10.569 -5.91849
LeftFoot  14.0997 2.1236 -9.73843
LeftToes  1.06244e-005 4.65856e-005 -8.18505e-006
